<svg xmlns="http://www.w3.org/2000/svg" xmlns:xlink="http://www.w3.org/1999/xlink" width="1187.007" height="758.719" viewBox="0 0 1187.007 758.719"><defs><style>.a,.c{fill:rgba(255,99,25,0.13);}.a{stroke:#707070;}.b{opacity:0.3;clip-path:url(#a);}.c{stroke:rgba(255,255,255,0.16);}</style><clipPath id="a"><rect class="a" width="1187.007" height="758.719" transform="translate(378 73)"/></clipPath></defs><g class="b" transform="translate(-378 -73)"><path class="c" d="M285.32,0V4.818a588.094,588.094,0,0,0,205.638,447.37L368.867,759.011,654.234,551.645a588.094,588.094,0,0,0,220.457,42.637c325.678,0,589.6-263.967,589.553-589.554V0Zm994.1,149.275A431.914,431.914,0,0,1,873.872,434.461,432,432,0,0,1,468.231,149.275a33.546,33.546,0,0,1,31.547-44.819h38.636a33.547,33.547,0,0,1,31.091,21A330.55,330.55,0,0,0,873.873,331.368a330.824,330.824,0,0,0,304.368-205.912,33.364,33.364,0,0,1,31.454-21h38.728a33.456,33.456,0,0,1,31.455,44.819Z" transform="translate(99.223 72.355)"/></g></svg>