<svg xmlns="http://www.w3.org/2000/svg" width="290" height="58.338" viewBox="0 0 290 58.338"><defs><style>.a{fill:#002395;}.b{fill:#ff6319;}</style></defs><g transform="translate(-282 1.838)"><path class="a" d="M6.748,49.022C8.984,52.7,12.484,54.57,17.306,54.57c4.283,0,6.289-1.929,6.289-4.158A4.01,4.01,0,0,0,21.3,46.919a14.108,14.108,0,0,0-3.619-1.572c-1.027-.419-3.438-1.209-4.647-1.691C6.447,41.238,2.828,37.8,2.828,31.463a10.362,10.362,0,0,1,4.039-8.629,15.477,15.477,0,0,1,9.957-3.256c6.093,0,10.74,2.292,13.975,6.876l-6.212,4.71c-1.691-2.173-4.192-3.256-7.539-3.256-3.081,0-5.073,1.446-5.073,3.438a3.068,3.068,0,0,0,1.635,3.019c.657.356,1.328.664,1.866.9l3.019,1.027c1.4.482,2.592.9,3.619,1.328,7.686,2.893,10.74,6.456,10.74,12.487,0,7.784-5.31,12.857-15.624,12.857-8.511,0-14.422-3.8-17.259-9.293Z" transform="translate(282.03 -7.734)"/><path class="a" d="M80.656,40.608A14.9,14.9,0,0,1,85.6,52.039,15.114,15.114,0,0,1,80.656,63.5a17.8,17.8,0,0,1-23.946-.035A15.268,15.268,0,0,1,51.819,52,15.037,15.037,0,0,1,56.71,40.6a17.584,17.584,0,0,1,23.946.007ZM63.124,57.678a8.015,8.015,0,0,0,11.222,0,7.868,7.868,0,0,0,2.264-5.639,7.623,7.623,0,0,0-2.292-5.59,7.861,7.861,0,0,0-11.222,0,7.623,7.623,0,0,0-2.292,5.59,7.777,7.777,0,0,0,2.32,5.639Z" transform="translate(266.412 -12.652)"/><path class="a" d="M106.9,67.323V36.914h8.993v3.8c1.265-2.655,4.647-4.465,8.748-4.465,7.3,0,11.522,4.7,11.522,12.577v7.686c0,2.355.482,3.2,1.991,3.2h.608l.356-.063V67.26a11.83,11.83,0,0,1-3.92.419c-5.366,0-8.022-2.893-8.022-8.685V49.945c0-3.564-1.873-5.737-5.429-5.737a5.723,5.723,0,0,0-5.855,6.037V67.323Z" transform="translate(249.817 -12.759)"/><path class="a" d="M159.06,67.323V36.914h8.993v4.158c1.4-3.074,4.647-4.821,8.8-4.821a18.739,18.739,0,0,1,2.355.182v8.441a15.939,15.939,0,0,0-3.019-.3c-5.129,0-8.14,2.9-8.14,7.9V67.323Z" transform="translate(234.103 -12.759)"/><path class="a" d="M194.368,32.178h8.993V51.9c0,2.236.538,3.2,2.047,3.2a3.99,3.99,0,0,0,1.09-.119v7.686a12.927,12.927,0,0,1-4.192.482c-5.31,0-7.966-2.837-7.966-8.567Zm.182-2.9,2.795-8.748h9.713l-5.793,8.748Z" transform="translate(223.475 -8.023)"/><path class="a" d="M219.388,41.022a14.226,14.226,0,0,1,10.8-4.584c4.584,0,8.147,1.873,9.049,4.521v-3.99h8.993V56.695c0,2.418.6,3.382,2.236,3.382.419,0,.964-.063,1.5-.119v7.477a13.912,13.912,0,0,1-4.039.482,10.055,10.055,0,0,1-4.947-1.083,6.351,6.351,0,0,1-2.718-3.256c-1.991,2.956-5.31,4.4-10.076,4.4a14.373,14.373,0,0,1-10.8-4.528A16.015,16.015,0,0,1,215.1,52.2,15.743,15.743,0,0,1,219.388,41.022Zm18.035,16.6a7.26,7.26,0,0,0,2.355-5.415,7.029,7.029,0,0,0-2.355-5.373,7.581,7.581,0,0,0-5.59-2.229,7.385,7.385,0,0,0-5.485,2.229,7.148,7.148,0,0,0-2.236,5.373,7.379,7.379,0,0,0,2.236,5.429,7.588,7.588,0,0,0,5.45,2.145,7.791,7.791,0,0,0,5.625-2.173Z" transform="translate(217.223 -12.814)"/><path class="b" d="M285.32,0V.37a45.2,45.2,0,0,0,15.806,34.385l-9.384,23.583L313.675,42.4a45.2,45.2,0,0,0,16.944,3.277A45.308,45.308,0,0,0,375.933.363V0Zm76.407,11.473a33.2,33.2,0,0,1-31.171,21.92,33.2,33.2,0,0,1-31.178-21.92A2.578,2.578,0,0,1,301.8,8.029h2.97a2.578,2.578,0,0,1,2.39,1.614,25.406,25.406,0,0,0,23.394,15.827A25.427,25.427,0,0,0,353.951,9.643a2.564,2.564,0,0,1,2.418-1.614h2.977a2.571,2.571,0,0,1,2.418,3.445Z" transform="translate(196.067 -1.838)"/></g></svg>