<svg xmlns="http://www.w3.org/2000/svg" xmlns:xlink="http://www.w3.org/1999/xlink" width="1920" height="885" viewBox="0 0 1920 885"><defs><style>.a,.d{fill:rgba(255,99,25,0.13);}.a{stroke:#707070;}.b{fill:url(#a);}.c{opacity:0.3;clip-path:url(#b);}.d{stroke:rgba(255,255,255,0.16);}</style><linearGradient id="a" x1="0.445" y1="1" x2="0.446" gradientUnits="objectBoundingBox"><stop offset="0" stop-color="#4bacd5"/><stop offset="1" stop-color="#0c0d2b"/></linearGradient><clipPath id="b"><rect class="a" width="1187.007" height="758.719" transform="translate(378 73)"/></clipPath></defs><g transform="translate(0 -71)"><rect class="b" width="1920" height="885" transform="translate(0 71)"/><g class="c" transform="translate(354.993 -2)"><path class="d" d="M285.32,0V4.818a588.094,588.094,0,0,0,205.638,447.37L368.867,759.011,654.234,551.645a588.094,588.094,0,0,0,220.457,42.637c325.678,0,589.6-263.967,589.553-589.554V0Zm994.1,149.275A431.914,431.914,0,0,1,873.872,434.461,432,432,0,0,1,468.231,149.275a33.546,33.546,0,0,1,31.547-44.819h38.636a33.547,33.547,0,0,1,31.091,21A330.55,330.55,0,0,0,873.873,331.368a330.824,330.824,0,0,0,304.368-205.912,33.364,33.364,0,0,1,31.454-21h38.728a33.456,33.456,0,0,1,31.455,44.819Z" transform="translate(99.223 72.355)"/></g></g></svg>