<svg xmlns="http://www.w3.org/2000/svg" width="109.023" height="109.023" viewBox="0 0 109.023 109.023"><defs><style>.a{fill:rgba(142,56,15,0.35);stroke:rgba(255,255,255,0.5);}.b{fill:#fff;}.c{stroke:none;}.d{fill:none;}</style></defs><g transform="translate(-1277 -376.977)"><g class="a" transform="translate(1277 376.977)"><circle class="c" cx="54.512" cy="54.512" r="54.512"/><circle class="d" cx="54.512" cy="54.512" r="54.012"/></g><g transform="translate(1287.322 407.297)"><g transform="translate(0 0)"><path class="b" d="M14.907,46.9a24.486,24.486,0,1,1,9.5,1.918A24.327,24.327,0,0,1,14.907,46.9ZM15.873,4.2a22,22,0,1,0,8.534-1.723A21.848,21.848,0,0,0,15.873,4.2ZM4.137,24.408a20.27,20.27,0,1,1,20.271,20.27A20.27,20.27,0,0,1,4.137,24.408Z" transform="translate(19.857)"/><path class="b" d="M11.553,23.106h0L0,11.553,11.553,0l1.536,1.536L3.072,11.553,13.089,21.57l-1.535,1.535Z" transform="translate(0 13.238)"/><path class="b" d="M11.553,23.106h0L0,11.553,11.553,0l1.536,1.536L3.072,11.553,13.089,21.57l-1.535,1.535Z" transform="translate(88.38 36.344) rotate(180)"/></g></g></g></svg>