<svg xmlns="http://www.w3.org/2000/svg" xmlns:xlink="http://www.w3.org/1999/xlink" width="142.304" height="161.356" viewBox="0 0 142.304 161.356"><defs><style>.a{fill:rgba(255,255,255,0.2);}.b,.c{stroke:none;}.c{fill:rgba(255,255,255,0.39);}.d{filter:url(#a);}</style><filter id="a" x="0" y="0" width="142.304" height="161.356" filterUnits="userSpaceOnUse"><feOffset dy="5" input="SourceAlpha"/><feGaussianBlur stdDeviation="2.5" result="b"/><feFlood flood-opacity="0.161"/><feComposite operator="in" in2="b"/><feComposite in="SourceGraphic"/></filter></defs><g transform="translate(-969.5 -739.5)"><g class="d" transform="matrix(1, 0, 0, 1, 969.5, 739.5)"><g class="a" transform="translate(-120.2 3.5)"><path class="b" d="M191.25,0a62.513,62.513,0,0,0-40.722,109.971l-12.947,32.536,30.278-22.073A62.532,62.532,0,1,0,191.25,0Z"/><path class="c" d="M 191.4717712402344 -0.0001983642578125 C 191.3977661132812 -0.0001983642578125 191.3241119384766 -7.62939453125e-05 191.2500915527344 0.00018310546875 L 191.2500610351562 0.00018310546875 C 191.2500610351562 0.00018310546875 191.2500610351562 0.00018310546875 191.2500915527344 0.00018310546875 C 191.2389068603516 0.00018310546875 191.2274932861328 0.00018310546875 191.2163238525391 0.00018310546875 C 165.0648956298828 0.00018310546875 141.6756591796875 16.27906799316406 132.5937194824219 40.80535125732422 C 123.5078430175781 65.34211730957031 130.6642150878906 92.94143676757812 150.5281982421875 109.9716796875 L 137.5814819335938 142.5077819824219 L 167.8594360351562 120.4344024658203 C 175.5022277832031 123.5508728027344 183.5148468017578 125.0651092529297 191.4566345214844 125.0651092529297 C 207.8359985351562 125.0651092529297 223.9224548339844 118.6282653808594 235.9008483886719 106.5330581665039 C 253.6871643066406 88.57334899902344 258.9119262695312 61.67184448242188 249.1413269042969 38.36002349853516 C 239.3993835449219 15.11651611328125 216.6598815917969 -4.57763671875e-05 191.4717712402344 -0.0001983642578125 M 191.4717712402344 -1.000198364257812 C 197.7746124267578 -1.000152587890625 204.0189056396484 -0.068572998046875 210.0311584472656 1.768692016601562 C 215.9231872558594 3.569198608398438 221.5154724121094 6.2144775390625 226.6526336669922 9.6309814453125 C 231.7904357910156 13.04792785644531 236.3927154541016 17.18292999267578 240.3316345214844 21.92113494873047 C 244.3518371582031 26.75711059570312 247.6261444091797 32.15789794921875 250.0635986328125 37.97348022460938 C 252.5082092285156 43.80612945556641 254.0650177001953 49.94580841064453 254.6907348632812 56.22194671630859 C 255.3038024902344 62.37120819091797 255.0164337158203 68.56936645507812 253.8365783691406 74.64424133300781 C 252.6567230224609 80.7191162109375 250.6031341552734 86.57424163818359 247.7328491210938 92.04696655273438 C 244.8033447265625 97.63260650634766 241.0615386962891 102.7431640625 236.6113739013672 107.2367324829102 C 233.6105194091797 110.266845703125 230.2967224121094 113.0008392333984 226.7619934082031 115.3628082275391 C 223.2910003662109 117.6822052001953 219.5727081298828 119.6660385131836 215.7104339599609 121.2592239379883 C 211.8842315673828 122.837532043457 207.8840484619141 124.0460815429688 203.8210296630859 124.8512954711914 C 199.7568511962891 125.6567306518555 195.5968627929688 126.0651092529297 191.4566345214844 126.0651092529297 C 183.3899230957031 126.0651092529297 175.5018005371094 124.5529327392578 168.0003356933594 121.5691986083984 L 138.1705780029297 143.3158416748047 L 135.3717498779297 145.3562622070312 L 136.65234375 142.1380615234375 L 149.3364562988281 110.2618789672852 C 144.6009521484375 106.1091918945312 140.5260620117188 101.2995758056641 137.2178955078125 95.95673370361328 C 133.8582000732422 90.53062438964844 131.3411712646484 84.64202117919922 129.7367706298828 78.45446014404297 C 128.1323699951172 72.26689910888672 127.4708709716797 65.89717102050781 127.7706146240234 59.52218627929688 C 128.0769348144531 53.00724029541016 129.3841552734375 46.59314727783203 131.6559600830078 40.45809173583984 C 133.9267578125 34.32567596435547 137.1104888916016 28.60927581787109 141.1187438964844 23.46769714355469 C 145.0408477783203 18.43660736083984 149.6885375976562 14.03482055664062 154.9326782226562 10.38465881347656 C 160.1767272949219 6.734573364257812 165.9184417724609 3.904769897460938 171.9983825683594 1.973892211914062 C 178.2115783691406 0.000701904296875 184.6774291992188 -0.99981689453125 191.2163238525391 -0.99981689453125 L 191.2500915527344 -0.99981689453125 C 191.3218231201172 -1.00006103515625 191.3966064453125 -1.000198364257812 191.4717712402344 -1.000198364257812 Z"/></g></g></g></svg>