<svg xmlns="http://www.w3.org/2000/svg" width="642.997" height="731.285" viewBox="0 0 642.997 731.285"><defs><style>.a{fill:#939393;opacity:0.131;}</style></defs><path class="a" d="M449.675,0A320.787,320.787,0,0,0,240.709,564.325l-66.436,166.96,155.372-113.27A320.884,320.884,0,1,0,449.675,0ZM669.939,399.392a234.555,234.555,0,0,1-441.493,0,18.154,18.154,0,0,1,17.092-24.334h21.244a18.251,18.251,0,0,1,16.8,11.2,178.451,178.451,0,0,0,331.313,0,18.154,18.154,0,0,1,16.9-11.395H653.04A18.154,18.154,0,0,1,670.132,399.2Z" transform="translate(-128.701 0)"/></svg>