<svg xmlns="http://www.w3.org/2000/svg" width="252.824" height="74.568" viewBox="0 0 252.824 74.568"><defs><style>.a{fill:#ff6319;}</style></defs><path class="a" d="M-.312-12.9C5.1-4.576,15.08.728,27.04.728c9.048,0,16.12-2.5,21.424-7.488a24.242,24.242,0,0,0,7.9-18.408,20.487,20.487,0,0,0-4.784-13.52A18.991,18.991,0,0,0,39.52-45.864h-.1L53.248-58.24V-72.488H6.032V-54.6H28.288L11.856-40.872,17.888-31.1a35.376,35.376,0,0,1,7.592-.832c6.968,0,11.336,3.224,11.336,7.384,0,4.576-4.576,7.592-10.3,7.592a13.39,13.39,0,0,1-11.648-6.24ZM57.408-1.872a10.235,10.235,0,0,0,14.248,0,9.741,9.741,0,0,0,0-14.144,10.235,10.235,0,0,0-14.248,0A10.108,10.108,0,0,0,57.408-1.872Zm54.912-10.4V0h19.24V-42.224H112.32v12.688H97.76l21.008-42.952H98.7L76.128-25.9v13.624Zm25.272-8.944A23.776,23.776,0,0,0,146.432-5.3a27.538,27.538,0,0,0,18.2,6.344A29.305,29.305,0,0,0,183.56-5.3c5.3-4.264,8.424-9.568,9.152-15.912.208-2.184.312-7.28.312-15.08s-.1-12.792-.312-14.976c-.728-6.344-3.848-11.648-9.152-15.912a29.305,29.305,0,0,0-18.928-6.344,27.538,27.538,0,0,0-18.2,6.344,23.776,23.776,0,0,0-8.84,15.912Q137.28-48,137.28-36.3C137.28-28.5,137.384-23.4,137.592-21.216ZM156.208-23.4c-.208-1.56-.312-5.928-.312-12.9,0-6.552.1-10.712.312-12.272.416-4.264,4.056-7.488,8.944-7.488a8.9,8.9,0,0,1,8.944,7.488c.208,1.56.312,5.72.312,12.272,0,6.968-.1,11.336-.312,12.9a8.9,8.9,0,0,1-8.944,7.488C160.264-15.912,156.624-19.136,156.208-23.4Zm40.872,2.184A23.776,23.776,0,0,0,205.92-5.3a27.538,27.538,0,0,0,18.2,6.344A29.305,29.305,0,0,0,243.048-5.3c5.3-4.264,8.424-9.568,9.152-15.912.208-2.184.312-7.28.312-15.08s-.1-12.792-.312-14.976c-.728-6.344-3.848-11.648-9.152-15.912a29.305,29.305,0,0,0-18.928-6.344,27.538,27.538,0,0,0-18.2,6.344,23.776,23.776,0,0,0-8.84,15.912Q196.768-48,196.768-36.3C196.768-28.5,196.872-23.4,197.08-21.216ZM215.7-23.4c-.208-1.56-.312-5.928-.312-12.9,0-6.552.1-10.712.312-12.272.416-4.264,4.056-7.488,8.944-7.488a8.9,8.9,0,0,1,8.944,7.488c.208,1.56.312,5.72.312,12.272,0,6.968-.1,11.336-.312,12.9a8.9,8.9,0,0,1-8.944,7.488C219.752-15.912,216.112-19.136,215.7-23.4Z" transform="translate(0.312 73.528)"/></svg>