<svg xmlns="http://www.w3.org/2000/svg" width="23.882" height="25.285" viewBox="0 0 23.882 25.285"><defs><style>.a{fill:#ff6319;}</style></defs><path class="a" d="M13.172-39.22l-6.29-7.252a10.117,10.117,0,0,0-3.922,4c-.518,1.11-.148,2.072,1.184,2.664l6.956,2.96L2.96-34.78c-.518.222-.888.888-.666,1.924.37,1.7,1.554,4.07,2.812,4.736l7.474-5.994-2.664,7.1C9.4-25.6,9.694-24.568,11.1-24.346a13.945,13.945,0,0,0,5.328,0l-.962-9.472L22.2-26.492a9.541,9.541,0,0,0,3.7-3.922,1.96,1.96,0,0,0-1.184-2.812L17.39-36.482l7.326-1.406C25.9-38.11,26.2-39,25.974-40.256a7.255,7.255,0,0,0-2.516-4.662l-7.326,5.7,2.886-8.14c.37-.888-.444-1.628-1.924-1.85a8.765,8.765,0,0,0-4.588.3Z" transform="translate(-2.228 49.38)"/></svg>