<svg xmlns="http://www.w3.org/2000/svg" width="37.864" height="43.167" viewBox="0 0 37.864 43.167"><defs><style>.a{fill:#dd4700;}</style></defs><path class="a" d="M147.632,0a18.927,18.927,0,0,0-12.317,33.3l-3.935,9.865,9.181-6.672a19.273,19.273,0,0,0,7.071,1.369,18.932,18.932,0,0,0,0-37.864ZM160.69,23.608a13.877,13.877,0,0,1-26.117,0,1.15,1.15,0,0,1,.114-.969,1.083,1.083,0,0,1,.855-.456H136.8a1.126,1.126,0,0,1,1.026.684,10.579,10.579,0,0,0,19.616,0,1.126,1.126,0,0,1,1.026-.684h1.255a1,1,0,0,1,.855.456A1.123,1.123,0,0,1,160.69,23.608Z" transform="translate(-128.7)"/></svg>